<svg xmlns="http://www.w3.org/2000/svg" width="283.5" height="283.5" shape-rendering="geometricPrecision"><g transform="translate(0, 283.5) scale(1, -1)scale(1.107421875,1.107421875)" stroke-width=".05%"><g fill="#1a181b"><path d=" M 128.22 15.36 C 158.43 32.54 188.44 50.12 218.61 67.39 C 220.72 68.64 222.92 69.79 224.79 71.39 C 225.45 72.82 225.30 74.45 225.39 75.98 C 225.33 106.32 225.38 136.66 225.36 167.00 C 225.32 172.61 225.58 178.24 225.09 183.84 C 204.68 195.89 184.00 207.50 163.55 219.50 C 151.69 226.16 140.09 233.27 128.11 239.71 C 96.43 221.47 64.76 203.19 33.10 184.90 C 31.50 184.24 30.63 182.77 30.82 181.04 C 30.79 147.36 30.83 113.68 30.80 80.01 C 30.75 77.09 31.13 74.20 31.30 71.30 C 63.55 52.56 95.89 33.96 128.22 15.36 Z"/></g></g><g transform="scale(1.107421875,1.107421875)" stroke-width=".05%"><g fill="#5a285e"><path d=" M 126.19 21.85 C 126.49 20.18 128.17 21.65 128.18 22.60 C 133.97 38.95 141.93 54.40 148.94 70.24 C 152.39 78.62 154.64 87.81 153.03 96.89 C 151.12 111.05 142.78 123.10 138.59 136.55 C 136.56 142.51 134.57 148.56 134.07 154.88 C 133.97 159.22 130.83 163.85 133.91 167.82 C 134.48 167.69 135.62 167.42 136.19 167.29 C 139.48 166.95 142.79 167.01 146.10 166.99 C 152.20 168.10 158.94 173.14 157.95 180.06 C 154.28 178.58 151.05 175.50 146.82 176.02 C 143.42 175.95 140.03 175.87 136.63 175.76 C 135.52 175.77 134.40 175.81 133.29 175.88 C 131.36 180.00 132.73 184.49 133.62 188.68 C 134.73 194.14 137.46 199.35 136.87 205.06 C 136.33 215.59 130.34 224.62 127.38 234.49 C 122.68 224.54 117.46 214.10 117.78 202.81 C 117.71 198.47 120.06 194.62 120.27 190.33 C 120.73 185.57 123.35 180.44 120.65 175.92 C 119.36 175.93 118.07 175.91 116.78 175.87 C 113.72 175.58 110.61 174.82 107.57 175.66 C 103.20 175.74 99.82 178.63 95.87 180.00 C 95.63 173.30 101.35 168.21 107.66 167.37 C 111.10 166.85 114.60 166.90 118.07 167.11 C 118.56 167.31 119.54 167.71 120.02 167.91 C 122.50 164.03 121.19 159.19 120.63 154.95 C 117.70 135.31 105.92 118.44 101.97 99.09 C 100.34 91.73 100.85 84.00 102.91 76.78 C 105.38 68.01 110.26 60.22 114.10 52.02 C 118.96 42.31 122.13 31.89 126.19 21.85 Z"/></g><g fill="#452c5f"><path d=" M 60.35 103.22 C 71.61 100.51 83.27 104.46 93.06 109.94 C 106.62 121.78 113.97 139.22 116.82 156.70 C 117.36 160.16 116.67 163.80 118.07 167.11 C 114.60 166.90 111.10 166.85 107.66 167.37 C 106.71 159.44 102.46 151.32 94.59 148.45 C 85.47 145.13 73.62 146.43 67.17 154.31 C 61.23 161.24 59.88 170.63 59.41 179.42 C 53.22 176.45 49.40 170.44 46.66 164.40 C 40.93 152.18 37.04 138.03 40.84 124.66 C 44.88 115.90 50.14 105.68 60.35 103.22 Z"/><path d=" M 158.34 112.30 C 167.60 103.32 181.60 100.55 193.97 103.17 C 200.56 104.49 205.15 109.99 208.50 115.43 C 210.31 118.58 212.46 121.62 213.64 125.08 C 215.97 138.43 213.96 152.56 207.76 164.63 C 204.75 170.58 200.35 175.88 194.60 179.35 C 194.28 169.87 192.58 159.53 185.53 152.57 C 179.99 147.00 171.50 146.08 164.07 147.09 C 155.85 148.30 149.02 155.14 147.36 163.21 C 146.93 164.45 147.02 165.96 146.10 166.99 C 142.79 167.01 139.48 166.95 136.19 167.29 C 137.29 162.93 136.74 158.36 137.94 154.02 C 141.21 138.81 146.97 123.36 158.34 112.30 Z"/><path d=" M 107.57 175.66 C 110.61 174.82 113.72 175.58 116.78 175.87 C 115.68 184.98 114.00 194.24 109.18 202.22 C 106.32 207.14 102.68 212.22 97.11 214.23 C 93.00 215.97 87.84 214.19 85.72 210.24 C 82.37 204.43 82.60 196.74 85.95 190.97 C 87.78 187.62 91.96 185.97 95.58 187.29 C 98.80 189.21 98.87 193.45 99.99 196.64 C 106.35 191.72 107.22 183.11 107.57 175.66 Z"/><path d=" M 136.63 175.76 C 140.03 175.87 143.42 175.95 146.82 176.02 C 146.69 183.59 148.41 191.55 153.72 197.23 C 155.29 193.79 155.45 189.08 159.19 187.15 C 162.63 185.87 166.39 187.86 168.18 190.86 C 171.50 196.33 172.09 203.53 169.37 209.37 C 167.94 212.47 164.82 214.87 161.33 214.87 C 157.32 214.08 153.48 212.22 150.56 209.35 C 146.52 205.45 144.14 200.28 141.50 195.42 C 137.85 189.43 140.39 181.75 136.63 175.76 Z"/></g></g></svg>