<?xml version="1.0" encoding="UTF-8" standalone="no"?>
<!-- Generator: Adobe Illustrator 16.0.0, SVG Export Plug-In . SVG Version: 6.00 Build 0)  -->

<svg
   xmlns:dc="http://purl.org/dc/elements/1.1/"
   xmlns:cc="http://creativecommons.org/ns#"
   xmlns:rdf="http://www.w3.org/1999/02/22-rdf-syntax-ns#"
   xmlns:svg="http://www.w3.org/2000/svg"
   xmlns="http://www.w3.org/2000/svg"
   xmlns:sodipodi="http://sodipodi.sourceforge.net/DTD/sodipodi-0.dtd"
   xmlns:inkscape="http://www.inkscape.org/namespaces/inkscape"
   version="1.1"
   id="Capa_1"
   x="0px"
   y="0px"
   width="32px"
   height="32px"
   viewBox="0 0 32 32"
   style="enable-background:new 0 0 32 32;"
   xml:space="preserve"
   sodipodi:docname="icon.svg"
   inkscape:version="0.92.4 (5da689c313, 2019-01-14)"><metadata
   id="metadata47"><rdf:RDF><cc:Work
       rdf:about=""><dc:format>image/svg+xml</dc:format><dc:type
         rdf:resource="http://purl.org/dc/dcmitype/StillImage" /></cc:Work></rdf:RDF></metadata><defs
   id="defs45">
		
		
		
	</defs><sodipodi:namedview
   pagecolor="#ffffff"
   bordercolor="#666666"
   borderopacity="1"
   objecttolerance="10"
   gridtolerance="10"
   guidetolerance="10"
   inkscape:pageopacity="0"
   inkscape:pageshadow="2"
   inkscape:window-width="1920"
   inkscape:window-height="1016"
   id="namedview43"
   showgrid="false"
   inkscape:zoom="20.85965"
   inkscape:cx="14.36393"
   inkscape:cy="13.162864"
   inkscape:window-x="0"
   inkscape:window-y="27"
   inkscape:window-maximized="1"
   inkscape:current-layer="g10" />
<g
   id="g10">
	<path
   inkscape:connector-curvature="0"
   id="path2"
   d="m 31.957,25.278 c -0.095,-0.678 -0.308,-1.334 -0.624,-1.937 0.007,-0.042 0.016,-0.078 0.021,-0.122 0.02,-0.119 0.036,-0.249 0.052,-0.385 0.005,-0.068 0.022,-0.142 0.007,-0.208 -0.019,-0.066 -0.06,-0.127 -0.074,-0.196 -0.167,-0.544 -0.406,-1.174 -0.782,-1.808 -0.374,-0.63 -0.904,-1.271 -1.605,-1.729 l -0.27,-0.162 -0.302,-0.152 -0.245,-0.104 c -0.133,-0.052 -0.191,-0.065 -0.29,-0.101 -0.354,-0.125 -0.717,-0.221 -1.072,-0.29 -0.354,-0.07 -0.705,-0.116 -1.04,-0.131 -0.27,-0.02 -0.523,-0.011 -0.77,0.004 l 0.036,-0.047 c 0.09,-0.128 0.161,-0.252 0.242,-0.378 l 0.236,-0.377 0.131,-0.251 c 0.036,-0.073 0.075,-0.146 0.108,-0.218 0.537,-1.176 0.833,-2.437 0.819,-3.751 C 26.521,12.28 26.426,11.6 26.133,10.94 25.862,10.282 25.303,9.651 24.584,9.341 23.863,9.037 23.112,9.046 22.454,9.158 21.788,9.275 21.173,9.49 20.6,9.756 c -0.58,0.257 -1.117,0.568 -1.646,0.887 L 18.398,11.01 C 18.253,9.781 18.001,8.56 17.597,7.372 17.327,6.593 16.993,5.83 16.575,5.102 16.153,4.378 15.653,3.683 15.013,3.084 14.375,2.496 13.597,1.972 12.631,1.79 12.152,1.706 11.638,1.723 11.154,1.863 10.664,1.998 10.238,2.278 9.883,2.591 9.17,3.233 8.753,4.055 8.463,4.86 8.177,5.652 8.029,6.529 7.981,7.352 c -0.085,1.666 0.132,3.279 0.4,4.863 0.142,0.793 0.371,1.563 0.598,2.329 0.235,0.765 0.479,1.522 0.747,2.271 0.234,0.67 0.483,1.332 0.742,1.989 C 9.593,17.408 8.762,15.989 8.001,14.534 7.15,12.893 6.375,11.207 5.82,9.473 L 5.623,8.822 5.456,8.167 C 5.36,7.729 5.274,7.292 5.228,6.856 5.178,6.418 5.16,5.987 5.184,5.566 5.182,5.352 5.237,5.156 5.257,4.949 5.287,4.763 5.347,4.591 5.393,4.413 L 5.494,4.253 C 5.537,4.189 5.569,4.109 5.622,4.065 L 5.762,3.911 C 5.81,3.859 5.874,3.848 5.92,3.804 5.966,3.76 6.01,3.718 6.059,3.682 6.106,3.643 6.153,3.591 6.217,3.569 6.278,3.546 6.333,3.495 6.407,3.483 6.477,3.468 6.55,3.44 6.628,3.43 L 6.874,3.409 7.136,3.423 c 0.18,0.019 0.364,0.05 0.55,0.101 0.185,0.05 0.37,0.113 0.558,0.183 C 8.429,3.78 8.616,3.86 8.794,3.958 8.546,3.633 8.26,3.323 7.919,3.065 7.749,2.932 7.564,2.815 7.365,2.706 7.264,2.657 7.158,2.607 7.051,2.562 L 6.705,2.459 C 6.586,2.431 6.457,2.423 6.329,2.407 6.201,2.386 6.066,2.411 5.931,2.417 5.793,2.42 5.662,2.462 5.527,2.503 5.39,2.54 5.255,2.584 5.148,2.673 5.04,2.753 4.926,2.84 4.837,2.934 L 4.579,3.223 C 4.484,3.319 4.435,3.425 4.366,3.527 L 4.177,3.838 4.153,3.878 4.141,3.922 C 4.072,4.181 3.983,4.441 3.939,4.703 3.908,4.962 3.846,5.227 3.846,5.483 3.815,6 3.839,6.51 3.896,7.007 3.95,7.505 4.046,7.99 4.15,8.47 l 0.182,0.711 0.211,0.697 c 0.592,1.848 1.396,3.588 2.271,5.278 0.884,1.688 1.849,3.321 2.868,4.919 L 9.991,20.548 9.79,20.252 C 9.717,20.223 9.643,20.197 9.562,20.181 9.218,20.112 8.879,20.164 8.585,20.306 7.351,18.271 3.13,15.691 1.897,15.771 1.44,15.8 1.102,15.954 0.893,16.226 c -0.357,0.465 -0.22,1.152 -0.175,1.379 0.039,0.194 0.149,0.357 0.318,0.47 0.315,0.21 0.782,0.21 1.114,0.141 C 2.624,18.117 2.902,17.934 2.827,17.327 2.803,17.133 2.7,16.977 2.531,16.881 2.27,16.731 1.886,16.752 1.659,16.848 l 0.132,0.31 C 1.923,17.1 2.193,17.075 2.364,17.173 2.441,17.218 2.483,17.28 2.494,17.371 2.539,17.725 2.473,17.809 2.082,17.89 1.828,17.945 1.451,17.952 1.221,17.798 1.125,17.736 1.068,17.652 1.047,17.542 1.009,17.354 0.894,16.776 1.158,16.432 c 0.147,-0.191 0.403,-0.301 0.76,-0.324 1.117,-0.072 5.246,2.51 6.383,4.379 -0.024,0.02 -0.048,0.037 -0.07,0.057 -2.023,-0.827 -6.75,-1.674 -7.749,-0.727 -0.333,0.314 -0.494,0.647 -0.481,0.991 0.021,0.524 0.438,0.92 0.748,1.173 0.093,0.074 0.197,0.125 0.309,0.146 0.076,0.016 0.155,0.021 0.236,0.011 C 1.671,22.096 2.03,21.798 2.24,21.534 2.542,21.156 2.638,20.836 2.192,20.419 2.049,20.284 1.871,20.231 1.68,20.265 1.382,20.317 1.101,20.578 0.988,20.796 l 0.298,0.153 c 0.065,-0.127 0.26,-0.322 0.451,-0.355 0.088,-0.016 0.159,0.007 0.227,0.069 0.261,0.244 0.263,0.35 0.015,0.664 C 1.818,21.528 1.533,21.776 1.258,21.806 1.144,21.819 1.046,21.789 0.96,21.72 0.81,21.598 0.354,21.23 0.337,20.795 0.327,20.553 0.453,20.306 0.712,20.06 c 0.787,-0.745 5.18,-0.07 7.277,0.747 -0.119,0.168 -0.208,0.362 -0.252,0.578 -0.173,0.836 0.364,1.652 1.199,1.825 0.393,0.081 0.778,10e-4 1.098,-0.188 l -0.009,0.009 c 0,0 1.367,1.853 2.875,3.896 1.508,2.043 6.853,3.807 7.505,3.221 0.116,-0.105 -0.423,-1.052 -2.069,-2.299 0.249,0.084 0.497,0.167 0.746,0.254 0.803,0.256 1.604,0.516 2.415,0.758 0.817,0.221 1.616,0.477 2.457,0.668 0.836,0.181 1.694,0.42 2.519,0.517 l 0.623,0.095 0.312,0.043 0.155,0.021 0.04,0.006 0.02,0.002 0.055,0.005 0.091,0.003 c 0.479,0.022 0.976,-0.046 1.455,-0.188 0.479,-0.148 0.95,-0.382 1.343,-0.716 0.396,-0.33 0.714,-0.743 0.941,-1.189 0.456,-0.906 0.566,-1.908 0.449,-2.85 z m -6.298,-5.986 c 0.271,0.011 0.56,0.05 0.854,0.109 0.295,0.056 0.599,0.136 0.9,0.241 l 0.205,0.069 0.24,0.103 0.171,0.087 0.186,0.112 c 0.439,0.287 0.807,0.701 1.096,1.152 -0.187,-0.116 -0.379,-0.227 -0.582,-0.323 -0.391,-0.188 -0.863,-0.362 -1.332,-0.446 -0.468,-0.104 -0.934,-0.117 -1.393,-0.121 -0.915,0.021 -1.795,0.181 -2.645,0.403 -0.47,0.125 -0.929,0.272 -1.383,0.434 0.054,-0.047 0.108,-0.095 0.162,-0.142 0.449,-0.406 0.895,-0.82 1.32,-1.262 0.164,-0.157 0.317,-0.329 0.473,-0.501 0.081,0.018 0.169,0.038 0.257,0.06 -0.104,-0.021 -0.24,-0.051 0.378,0.092 0.103,-0.036 0.213,-0.052 0.33,-0.059 0.236,-0.016 0.492,-0.027 0.763,-0.008 z M 9.73,11.96 C 9.586,11.205 9.445,10.445 9.383,9.685 9.314,8.929 9.278,8.171 9.319,7.429 9.367,6.68 9.482,5.989 9.731,5.297 c 0.238,-0.67 0.577,-1.29 1.046,-1.707 0.459,-0.426 1.024,-0.584 1.618,-0.479 0.598,0.107 1.191,0.479 1.702,0.953 0.515,0.479 0.948,1.076 1.317,1.71 0.368,0.639 0.671,1.324 0.916,2.033 0.482,1.424 0.74,2.933 0.839,4.454 l 0.077,1.205 0.989,-0.707 0.706,-0.503 0.721,-0.473 c 0.487,-0.294 0.98,-0.58 1.488,-0.803 0.504,-0.237 1.023,-0.411 1.527,-0.5 0.503,-0.087 0.99,-0.07 1.373,0.092 0.374,0.171 0.671,0.475 0.856,0.913 0.192,0.429 0.278,0.949 0.285,1.479 0.017,1.063 -0.239,2.175 -0.691,3.155 -0.027,0.063 -0.062,0.121 -0.09,0.182 l -0.046,0.09 -0.022,0.045 -0.013,0.023 -0.003,0.008 -0.227,0.357 c -0.08,0.123 -0.157,0.258 -0.238,0.371 l -0.249,0.314 -0.244,0.316 -0.285,0.317 c -0.191,0.212 -0.374,0.429 -0.585,0.629 -0.4,0.413 -0.825,0.809 -1.256,1.2 -0.439,0.384 -0.876,0.771 -1.334,1.137 -0.905,0.743 -1.843,1.455 -2.798,2.143 -0.541,0.39 -1.089,0.771 -1.642,1.146 -0.351,0.224 -0.701,0.457 -1.051,0.696 -0.003,-0.004 -0.012,-0.011 -0.012,-0.011 0,0 -1.134,-0.854 -1.115,-0.874 0,0 -0.147,-0.103 -0.337,-0.232 -0.226,-0.841 -0.452,-1.739 -0.681,-2.238 -0.086,-0.184 -0.163,-0.371 -0.254,-0.55 l -0.045,-0.139 c -0.472,-1.501 -0.906,-3.011 -1.292,-4.525 -0.195,-0.757 -0.364,-1.52 -0.524,-2.281 z m 0.839,10.526 c 0.087,-0.146 0.157,-0.305 0.193,-0.479 0.017,-0.077 0.019,-0.154 0.021,-0.229 0.019,0.029 0.036,0.061 0.056,0.09 0.15,0.185 0.331,0.348 0.495,0.521 0.226,0.23 0.454,0.595 0.686,0.997 -0.7,-0.477 -1.436,-0.914 -1.436,-0.914 z m 19.744,5.022 c -0.306,0.604 -0.823,1.051 -1.477,1.225 -0.325,0.087 -0.671,0.128 -1.031,0.113 L 26.594,28.778 C 25.74,28.758 24.96,28.609 24.141,28.514 23.329,28.41 22.503,28.233 21.682,28.094 20.863,27.931 20.045,27.751 19.226,27.575 L 17.3,27.116 c -0.337,-0.232 -1.066,-0.735 -1.712,-1.188 0.202,-0.134 0.406,-0.268 0.606,-0.402 0.273,-0.175 0.549,-0.348 0.825,-0.516 0.707,-0.426 1.427,-0.831 2.157,-1.209 1.461,-0.754 2.974,-1.414 4.524,-1.828 0.772,-0.203 1.558,-0.343 2.32,-0.359 0.378,0.007 0.758,0.017 1.111,0.097 0.358,0.064 0.68,0.182 1.045,0.355 0.625,0.302 1.228,0.789 1.646,1.377 0.433,0.586 0.701,1.29 0.803,2.007 0.093,0.717 -0.002,1.455 -0.312,2.058 z"
   style="fill:#000000;fill-opacity:1" /><path
   inkscape:connector-curvature="0"
   id="path4"
   d="m 19.98,17.135 c -1.317,-2.419 -3.707,0.408 -3.707,0.408 0,0 -0.446,-4.466 -2.828,-3.796 -2.383,0.67 1.19,9.864 1.19,9.864 0,0 6.665,-4.058 5.345,-6.476 z"
   style="fill:#000000;fill-opacity:1" /><path
   inkscape:connector-curvature="0"
   id="path6"
   d="m 23.141,23.798 c -2.438,-0.671 -6.159,2.121 -6.159,2.121 0,0 4.058,1.675 5.808,1.415 1.748,-0.26 2.79,-2.867 0.351,-3.536 z"
   style="fill:#000000;fill-opacity:1" />
</g>
<g
   id="g12">
</g>
<g
   id="g14">
</g>
<g
   id="g16">
</g>
<g
   id="g18">
</g>
<g
   id="g20">
</g>
<g
   id="g22">
</g>
<g
   id="g24">
</g>
<g
   id="g26">
</g>
<g
   id="g28">
</g>
<g
   id="g30">
</g>
<g
   id="g32">
</g>
<g
   id="g34">
</g>
<g
   id="g36">
</g>
<g
   id="g38">
</g>
<g
   id="g40">
</g>
</svg>