<svg xmlns="http://www.w3.org/2000/svg" width="283.5" height="283.5" shape-rendering="geometricPrecision"><g transform="scale(1.107421875,1.107421875)" stroke-width=".05%"><g fill="#1a181b"><path d=" M 69.43 12.67 C 76.27 12.07 83.14 12.45 90.00 12.39 C 120.69 12.35 151.37 12.45 182.06 12.33 C 184.40 12.32 186.73 12.66 189.05 12.96 C 190.07 18.92 189.56 24.98 189.62 31.00 C 189.61 92.00 189.62 153.00 189.61 214.00 C 189.34 222.99 190.29 232.03 189.10 240.97 C 187.10 241.31 185.10 241.69 183.07 241.69 C 151.38 241.53 119.69 241.66 88.00 241.61 C 81.63 241.54 75.22 242.12 68.91 241.04 C 68.07 234.39 68.53 227.68 68.46 221.00 C 68.44 156.67 68.49 92.33 68.44 28.00 C 68.60 22.90 67.70 17.59 69.43 12.67 Z"/></g></g><g transform="scale(1.107421875,1.107421875)" stroke-width=".05%"><g fill="#c3c0bf"><path d=" M 114.83 50.07 C 120.76 48.31 127.00 49.16 133.09 49.05 C 146.66 50.76 159.33 58.59 166.91 69.98 C 171.94 77.63 175.21 86.73 175.02 95.95 C 175.74 110.47 169.04 125.54 157.40 134.29 C 162.60 127.27 167.45 119.69 169.13 110.97 C 171.82 99.05 168.21 85.91 159.91 76.97 C 152.25 68.25 140.49 63.61 128.97 64.03 C 120.68 64.78 112.42 67.65 106.07 73.15 C 97.23 80.38 92.08 91.68 91.96 103.05 C 92.01 116.51 99.40 129.62 110.97 136.54 C 110.45 138.63 107.25 139.18 105.89 140.92 C 94.03 135.11 84.52 124.45 80.55 111.80 C 77.80 104.47 79.40 96.52 79.03 88.89 C 81.83 70.37 96.71 54.55 114.83 50.07 Z"/><path d=" M 139.42 144.87 C 141.88 145.21 144.28 145.82 146.72 146.29 C 148.89 153.52 151.14 160.73 153.21 167.99 C 156.85 171.69 161.26 174.50 164.89 178.21 C 165.84 179.10 166.01 180.44 166.45 181.61 C 168.40 187.73 170.47 193.82 172.31 199.98 C 170.77 200.87 169.21 201.79 167.50 202.31 C 158.23 205.35 149.00 208.46 139.76 211.56 C 138.06 212.12 136.24 211.97 134.48 212.05 C 134.35 204.90 132.26 197.94 129.27 191.50 C 126.52 185.31 125.86 178.34 126.47 171.70 C 131.46 163.08 136.14 154.30 139.42 144.87 Z"/><path d=" M 121.47 152.90 C 125.17 150.52 129.01 147.98 133.67 148.96 C 132.09 152.84 130.20 156.59 128.67 160.48 C 126.98 165.38 122.62 168.58 120.05 172.95 C 117.52 177.97 113.99 182.61 113.25 188.34 C 110.68 195.66 112.43 203.49 111.15 211.02 C 100.93 208.45 90.86 204.85 82.05 198.92 C 85.99 196.19 89.17 192.44 91.21 188.10 C 94.29 181.22 97.39 174.36 100.42 167.46 C 103.35 163.08 108.51 160.83 111.53 156.50 C 113.53 152.98 118.01 153.42 121.47 152.90 Z"/><path d=" M 117.38 184.57 C 119.00 181.31 121.43 178.52 123.65 175.66 C 122.30 180.42 124.34 185.23 124.01 190.06 C 123.75 192.82 125.87 194.84 126.72 197.28 C 128.03 201.06 129.39 204.83 130.83 208.57 C 130.74 209.71 130.65 210.86 130.56 212.00 C 125.40 211.93 120.22 212.22 115.07 211.71 C 115.18 207.05 114.12 202.37 115.12 197.76 C 115.99 193.38 116.61 188.96 117.38 184.57 Z"/></g><g fill="#839090"><path d=" M 123.49 36.57 C 143.65 35.73 164.24 41.50 180.73 53.24 C 199.16 66.00 212.48 85.95 217.24 107.85 C 220.93 122.72 220.28 138.43 216.09 153.12 C 207.68 184.53 180.95 210.23 149.17 217.23 C 129.17 222.55 107.56 219.65 88.89 211.08 C 84.16 208.51 78.98 206.60 74.99 202.89 C 61.01 193.12 49.99 179.24 43.39 163.54 C 36.48 146.24 34.10 126.84 38.57 108.61 C 42.06 91.23 51.20 75.22 63.73 62.76 C 79.57 47.05 101.30 37.91 123.49 36.57 M 117.55 44.50 C 97.71 46.92 78.84 56.70 65.47 71.55 C 53.08 85.05 45.53 102.78 43.97 121.00 C 43.98 127.94 43.42 134.97 44.79 141.82 C 48.11 162.59 59.54 182.15 76.39 194.80 C 78.81 193.42 81.23 192.05 83.64 190.65 C 87.34 181.79 91.38 173.08 95.17 164.26 C 96.51 159.29 102.25 158.43 105.71 155.39 C 106.91 151.45 108.25 147.56 109.58 143.67 C 109.94 141.90 111.64 141.08 112.91 140.03 C 114.07 135.68 112.80 130.56 115.82 126.88 C 119.38 121.52 122.83 116.08 126.41 110.73 C 133.68 120.08 141.16 129.27 148.31 138.71 C 151.96 146.24 154.33 154.35 157.80 161.96 C 161.19 166.25 165.84 169.39 169.35 173.56 C 172.15 181.12 174.81 188.75 177.38 196.39 C 199.81 180.82 213.32 153.23 212.10 125.97 C 211.99 96.34 194.17 67.75 168.03 53.97 C 152.74 45.59 134.81 42.41 117.55 44.50 M 139.42 144.87 C 136.14 154.30 131.46 163.08 126.47 171.70 C 125.86 178.34 126.52 185.31 129.27 191.50 C 132.26 197.94 134.35 204.90 134.48 212.05 C 136.24 211.97 138.06 212.12 139.76 211.56 C 149.00 208.46 158.23 205.35 167.50 202.31 C 169.21 201.79 170.77 200.87 172.31 199.98 C 170.47 193.82 168.40 187.73 166.45 181.61 C 166.01 180.44 165.84 179.10 164.89 178.21 C 161.26 174.50 156.85 171.69 153.21 167.99 C 151.14 160.73 148.89 153.52 146.72 146.29 C 144.28 145.82 141.88 145.21 139.42 144.87 M 121.47 152.90 C 118.01 153.42 113.53 152.98 111.53 156.50 C 108.51 160.83 103.35 163.08 100.42 167.46 C 97.39 174.36 94.29 181.22 91.21 188.10 C 89.17 192.44 85.99 196.19 82.05 198.92 C 90.86 204.85 100.93 208.45 111.15 211.02 C 112.43 203.49 110.68 195.66 113.25 188.34 C 113.99 182.61 117.52 177.97 120.05 172.95 C 122.62 168.58 126.98 165.38 128.67 160.48 C 130.20 156.59 132.09 152.84 133.67 148.96 C 129.01 147.98 125.17 150.52 121.47 152.90 M 117.38 184.57 C 116.61 188.96 115.99 193.38 115.12 197.76 C 114.12 202.37 115.18 207.05 115.07 211.71 C 120.22 212.22 125.40 211.93 130.56 212.00 C 130.65 210.86 130.74 209.71 130.83 208.57 C 129.39 204.83 128.03 201.06 126.72 197.28 C 125.87 194.84 123.75 192.82 124.01 190.06 C 124.34 185.23 122.30 180.42 123.65 175.66 C 121.43 178.52 119.00 181.31 117.38 184.57 Z"/></g></g></svg>